<?xml version="1.0" encoding="utf-8"?>
<!-- Generator: Adobe Illustrator 27.1.1, SVG Export Plug-In . SVG Version: 6.00 Build 0)  -->
<svg version="1.1" baseProfile="basic" id="Calque_1"
	 xmlns="http://www.w3.org/2000/svg" xmlns:xlink="http://www.w3.org/1999/xlink" x="0px" y="0px" width="144px" height="24px"
	 viewBox="0 0 144 24" xml:space="preserve">
<style type="text/css">
	.st0{fill:#15151E;}
	.st1{fill:#E10600;}
</style>
<g>
	<g>
		<path class="st0" d="M105.1,23.2V5.5h-8.6v-5h23.3v5h-8.6v17.7H105.1z"/>
		<path class="st0" d="M126.4,0.5l5.1,16.7c0.1,0.2,0.2,0.4,0.2,0.5c0.1,0.1,0.2,0.2,0.4,0.2c0.2,0,0.3-0.1,0.4-0.2
			c0.1-0.1,0.2-0.3,0.3-0.6L138,0.5h6l-5.6,17.7c-0.5,1.6-1.3,2.9-2.2,3.9c-0.9,0.9-2.2,1.4-3.9,1.4c-1.8,0-3.2-0.4-4.1-1.3
			c-0.9-0.9-1.7-2.2-2.2-4l-5.8-17.7H126.4z"/>
	</g>
	<g>
		<g>
			<g>
				<path class="st1" d="M80.9,23.2c-1,0-1.9-0.3-2.6-1c-0.7-0.7-1-1.5-1-2.5c0-1,0.3-1.8,1-2.5c0.7-0.7,1.5-1,2.5-1
					c1,0,1.9,0.3,2.5,1c0.7,0.7,1,1.5,1,2.5c0,1-0.3,1.8-1,2.5C82.8,22.9,81.9,23.2,80.9,23.2z M80.9,16.7c-0.8,0-1.5,0.3-2.1,0.9
					c-0.6,0.6-0.8,1.3-0.8,2.1s0.3,1.5,0.8,2.1c0.6,0.6,1.3,0.9,2.1,0.9s1.5-0.3,2.1-0.9c0.6-0.6,0.8-1.3,0.8-2.1s-0.3-1.5-0.8-2.1
					C82.4,17,81.7,16.7,80.9,16.7z M80.2,20.2v1.4h-0.8v-3.9h1.5c0.5,0,0.9,0.1,1.2,0.3c0.3,0.2,0.4,0.5,0.4,0.9
					c0,0.4-0.1,0.7-0.2,0.9c-0.1,0.2-0.3,0.3-0.5,0.4l0.7,1.5h-0.8L81,20.2H80.2z M80.2,18.3v1.3H81c0.2,0,0.4-0.1,0.5-0.2
					c0.1-0.1,0.2-0.3,0.2-0.5c0-0.4-0.3-0.7-0.8-0.7H80.2z"/>
			</g>
		</g>
		<path class="st1" d="M0,23.2L15.9,7.3c5.8-5.7,8.9-6.8,19.7-6.8h38.9l-7.9,7.7H37.3c-8,0-10,0.6-14,4.5L12.8,23.2H0z M38.1,10.4
			c-8,0-9.5,0.4-13.1,4l-8.8,8.9H28l2.8-2.9c1.7-1.7,2.4-2.1,6.3-2.1h19.4l7.9-7.8H38.1z M77.3,0.5L54.5,23.2H68L90.8,0.5H77.3z"/>
	</g>
</g>
</svg>
