<svg width="37" height="23" viewBox="0 0 37 23" fill="none" xmlns="http://www.w3.org/2000/svg">
<path fill-rule="evenodd" clip-rule="evenodd" d="M12.7129 0.0643564H13.0907V0.0702575C14.9617 0.126823 16.7924 0.627412 18.4318 1.53073C19.0297 1.1829 19.6582 0.890513 20.3094 0.657211L20.829 1.44535L21.3346 1.29285L21.4344 0.319385C22.0298 0.173813 22.636 0.0769278 23.2471 0.0296887L23.5381 0.967746L24.0664 0.962213L24.4553 0C25.0456 0.0167806 25.6244 0.0789246 26.189 0.182743L26.246 1.2165L26.76 1.3395L27.3917 0.473177C27.9834 0.651004 28.5596 0.87704 29.1144 1.14901L28.8915 2.0856L29.3488 2.34966L30.1592 1.73117C30.6639 2.04823 31.1432 2.40409 31.5926 2.79555L31.0726 3.64085L31.4244 4.03455L32.4884 3.66556C32.9012 4.11259 33.2779 4.59163 33.6149 5.09818L32.9808 5.708L33.2227 6.17731L34.2089 6.09765C34.492 6.63437 34.7315 7.193 34.9249 7.76815L34.1128 8.26493L34.2478 8.77536L35.2428 8.91182C35.3769 9.51347 35.4616 10.1251 35.496 10.7405L34.524 11.0465L34.532 11.5744L35.4997 11.9613C35.4673 12.6017 35.3805 13.2382 35.2404 13.864L34.2762 13.8881L34.1379 14.3978L34.9205 15.0058C34.7278 15.5757 34.4901 16.1294 34.2096 16.6617L33.3474 16.4513L33.0809 16.907L33.6315 17.637C33.3249 18.1005 32.9849 18.541 32.6144 18.9551L31.7884 18.5247L31.4207 18.9037L31.7967 19.7814C31.3353 20.2032 30.8401 20.5865 30.3162 20.9275L29.6674 20.3192L29.211 20.5849L29.3327 21.4997C28.7663 21.7929 28.1761 22.0378 27.5684 22.2316L27.0934 21.3979L26.5791 21.517L26.4072 22.5342C25.8293 22.6525 25.2431 22.7255 24.6539 22.7525L24.3834 21.8112L23.8558 21.8058L23.4523 22.7452C22.8398 22.709 22.2313 22.623 21.6328 22.4879L21.6079 21.4079L21.0986 21.2688L20.418 22.1418C19.8251 21.9362 19.2504 21.6817 18.6997 21.3808C16.9459 22.4083 14.8977 23 12.7125 23C6.26156 23 1 17.8482 1 11.532C1 5.33938 6.05743 0.267199 12.3347 0.0706261V0.0639878H12.7105C12.7114 0.0643566 12.7122 0.0643564 12.7129 0.0643564ZM11.8574 22.3009C11.9546 22.2309 12.0508 22.1596 12.146 22.087C10.5636 20.7268 9.29864 19.0361 8.44028 17.1341C7.19497 17.6494 6.05386 18.3871 5.07272 19.311C6.925 21.0555 9.32014 22.111 11.8574 22.3009ZM4.59714 18.8347C5.64084 17.8511 6.85513 17.0659 8.18046 16.5179C7.58686 15.0127 7.25772 13.4163 7.20755 11.799H1.68487C1.75255 14.5057 2.84587 16.971 4.59714 18.8347ZM1.69335 11.0433H7.20368C7.23728 9.39426 7.56086 7.76398 8.15962 6.2271C6.90895 5.70725 5.75717 4.97584 4.75481 4.06497C2.96094 5.8972 1.81727 8.34404 1.69335 11.0433ZM5.24145 3.59825C6.17814 4.4444 7.25217 5.12475 8.41741 5.61008C9.24429 3.75762 10.4567 2.10281 11.9738 0.756051C9.47332 0.916875 7.1007 1.91853 5.24145 3.59825ZM13.3679 0.750703C14.8952 2.10509 16.1141 3.77151 16.9422 5.63738C18.1328 5.15044 19.2298 4.46048 20.1843 3.59825C18.3036 1.89923 15.8984 0.894455 13.3679 0.750703ZM20.671 4.06516C19.6504 4.99258 18.475 5.7338 17.1983 6.25512C17.7901 7.78389 18.1099 9.40437 18.1434 11.0433H23.7326C23.6089 8.34404 22.4652 5.8972 20.671 4.06516ZM23.7409 11.799H18.1397C18.0898 13.4063 17.7645 14.9931 17.1778 16.4904C18.5293 17.0393 19.7672 17.8342 20.8286 18.8347C22.5797 16.9706 23.6732 14.5057 23.7409 11.799ZM20.3529 19.3108C19.354 18.3705 18.1897 17.6231 16.9187 17.1067C16.0605 19.0199 14.7911 20.7205 13.2008 22.0874C13.2982 22.1615 13.3965 22.2344 13.4957 22.3061C16.0591 22.1309 18.4824 21.0724 20.3529 19.3108ZM7.86845 11.0433H12.3352V7.12569C11.1235 7.08865 9.9246 6.86575 8.7805 6.46479C8.21075 7.9258 7.90204 9.47552 7.86845 11.0433ZM13.0907 11.0433H17.4788C17.4453 9.48425 17.1399 7.94299 16.5763 6.48895C15.453 6.87484 14.278 7.08949 13.0907 7.12569V11.0433ZM17.4745 11.799H13.0907V15.6279C14.2704 15.664 15.4381 15.8762 16.5551 16.2575C17.1137 14.8347 17.4247 13.3267 17.4745 11.799ZM12.3351 11.799H7.87251C7.92254 13.3355 8.23674 14.8518 8.80134 16.2817C9.93911 15.8852 11.1307 15.6647 12.3351 15.6279V11.799ZM16.2947 16.8747C15.2608 16.5257 14.1813 16.3303 13.0907 16.2947V21.2963C14.4469 20.0544 15.5369 18.5502 16.2947 16.8747ZM12.3351 16.2949C11.2203 16.3314 10.1173 16.5348 9.06282 16.8981C9.8352 18.5969 10.9491 20.1185 12.3351 21.368V16.2949ZM9.03904 5.84741C10.1007 6.21601 11.2119 6.4221 12.3351 6.45871V1.32401C10.9346 2.58694 9.81215 4.12736 9.03904 5.84741ZM13.0907 6.45871C14.1898 6.42289 15.2776 6.22479 16.3187 5.87083C15.56 4.174 14.4614 2.6508 13.0907 1.39538V6.45871ZM24.0699 2.90914C28.6969 2.90914 32.4707 6.68312 32.4707 11.3102C32.4707 15.9374 28.6969 19.7112 24.0699 19.7112C23.146 19.7118 22.2284 19.5589 21.3546 19.2588C20.7809 19.8732 20.143 20.4242 19.4519 20.9026L19.4757 21.1154L20.3426 21.4665L21.0068 20.721C21.3636 20.841 21.7271 20.9401 22.0955 21.018L22.1228 22.0844L23.1884 22.239L23.6373 21.2179C23.9942 21.2361 24.3518 21.2343 24.7085 21.2124L25.0052 22.2172L26.0745 22.0907L26.2423 21.0005C26.6082 20.9199 26.969 20.8182 27.3231 20.6959L27.7928 21.4667L28.7937 21.0695L28.6897 20.1056C29.0193 19.9322 29.3387 19.7403 29.6466 19.5308L30.2732 20.1578L31.1524 19.5358L30.8161 18.6005C31.0674 18.3674 31.3066 18.1215 31.5328 17.864L32.2845 18.3193L32.99 17.5057L32.4329 16.6669C32.6039 16.3998 32.7618 16.1245 32.9061 15.842L33.8274 16.0408L34.229 15.0417L33.4809 14.4705C33.5981 14.1179 33.695 13.759 33.7711 13.3954L34.7306 13.3615L34.8742 12.2939L33.9651 11.9054C33.986 11.5153 33.9834 11.1243 33.9572 10.7345L34.891 10.4079L34.7123 9.3459L33.7446 9.24558C33.6606 8.86909 33.5544 8.49791 33.4265 8.134L34.2563 7.6363L33.8663 6.6326L32.8113 6.73918C32.6412 6.4226 32.4539 6.1156 32.2502 5.81957L32.9043 5.10095L32.2419 4.25196L31.3007 4.6416C31.0397 4.3641 30.763 4.10176 30.472 3.85586L30.9488 3.03029L30.1209 2.3421L29.2298 2.96095C28.9372 2.78281 28.6355 2.62001 28.3259 2.47321L28.5417 1.54142L27.5483 1.12523L26.9126 1.93272C26.5618 1.82891 26.2054 1.74494 25.8451 1.6812L25.7865 0.707L24.716 0.589351L24.3393 1.53331C23.9789 1.52574 23.6184 1.53799 23.2594 1.57L22.9375 0.647623L21.8757 0.82594L21.772 1.81784C21.3978 1.9105 21.0293 2.02528 20.6686 2.16157L20.0908 1.37048L19.1266 1.84993L19.1478 1.95928C19.8274 2.3992 20.4598 2.90808 21.035 3.47784C22.0024 3.10111 23.0317 2.90824 24.0699 2.90914ZM21.8635 18.6759C22.5792 18.8913 23.3225 19.0004 24.0699 18.9998C28.3054 18.9998 31.7597 15.5455 31.7597 11.31C31.7597 7.07461 28.3054 3.62019 24.0699 3.62019C23.1943 3.62019 22.3524 3.76809 21.5672 4.03971C23.3463 6.05173 24.4254 8.67246 24.4254 11.5322C24.4252 14.2298 23.4654 16.7141 21.8635 18.6759Z" fill="black"/>
<path fill-rule="evenodd" clip-rule="evenodd" d="M4.20703 5.22229H11.9412V8.4226H8.0297V10.2895H11.5857V13.312H8.0297V17.6236H4.20703V5.22229ZM32.3373 17.6236H28.1145L27.6413 16.0233H24.3206L23.8981 17.6236H19.6756L23.3838 5.08897H28.6288L32.3373 17.6236ZM26.8391 13.312L25.8861 10.0914L25.0362 13.312H26.8391ZM14.6083 9.66732H18.342V17.7126H14.6083V9.66732ZM16.4752 4.4668C17.7481 4.4668 18.7866 5.50498 18.7866 6.7781C18.7866 8.05122 17.7481 9.08959 16.4752 9.08959C15.202 9.08959 14.1637 8.05122 14.1637 6.7781C14.1637 5.50498 15.202 4.4668 16.4752 4.4668Z" fill="black"/>
</svg>
