<svg width="1113" height="64" viewBox="0 0 1113 64" fill="none" xmlns="http://www.w3.org/2000/svg">
<g clip-path="url(#clip0_2974_19508)">
<rect width="1113" height="64" fill="url(#paint0_linear_2974_19508)"/>
<g opacity="0.12" clip-path="url(#clip1_2974_19508)">
<path d="M667.836 -77.4307H635.68L528.17 30.0831H560.326L667.836 -77.4307Z" fill="white"/>
<path d="M631.452 -77.4307H597.143L489.64 30.0768H478.997L341.086 167.996H352.334L490.241 30.0831H523.942L631.452 -77.4307Z" fill="white"/>
<path d="M222.079 64.4157L413.487 -126.994H379.173L187.766 64.4157H222.079Z" fill="white"/>
<path d="M409.907 -16.7588H385.913L135.562 233.583H159.563L409.907 -16.7588Z" fill="white"/>
<path d="M226.297 64.4157H258.453L449.861 -126.994H417.707L226.297 64.4157Z" fill="white"/>
<path d="M399.506 32.3185H408.449L474.025 -33.2578H465.082L399.506 32.3185Z" fill="white"/>
<path d="M409.551 32.3185H417.929L483.505 -33.2578H475.125L409.551 32.3185Z" fill="white"/>
<path d="M412.864 -16.7588L162.516 233.583H185.005L435.354 -16.7588H412.864Z" fill="white"/>
<path d="M656.045 52.2549H644.046L509.348 186.957H521.349L656.045 52.2549Z" fill="white"/>
<path d="M477.522 30.0762H465.523L327.609 167.99L339.611 167.996L477.522 30.0762Z" fill="white"/>
<path d="M643.457 15.3857L569.662 89.1874H585.643L659.445 15.3857H643.457Z" fill="white"/>
<path d="M613.061 15.3858H624.302L732 -92.3121V-103.554L613.061 15.3858Z" fill="white"/>
<path d="M567.556 89.1874L641.357 15.3857H624.301L550.506 89.1874H567.556Z" fill="white"/>
<path d="M599.584 15.3851H611.579L732 -105.036V-117.031L599.584 15.3851Z" fill="white"/>
</g>
<g opacity="0.12" clip-path="url(#clip2_2974_19508)">
<path d="M793.362 -36.3682L683.543 73.4507H694.791L804.61 -36.3682H793.362Z" fill="white"/>
<path d="M1197.21 -14.8252H1185.97L1094.94 76.204H1106.18L1197.21 -14.8252Z" fill="white"/>
<path d="M1081.46 76.204H1093.46L1184.49 -14.8252H1172.49L1081.46 76.204Z" fill="white"/>
<path d="M801.325 36.9452L727.529 110.747H743.51L817.305 36.9516H829.305L912.39 -46.1338H900.389L817.31 36.9452H801.325Z" fill="white"/>
<path d="M910.284 17.7529L742.039 186H758.026L926.271 17.7529H910.284Z" fill="white"/>
<path d="M864.857 163.128H887.347L1168.23 -117.76H1145.75L864.857 163.128Z" fill="white"/>
<path d="M970.73 127.406L1119.88 -21.7402H1102.83L953.678 127.406H970.73Z" fill="white"/>
<path d="M913.865 -46.1338L830.779 36.9516H842.027L925.113 -46.1338H913.865Z" fill="white"/>
<path d="M891.128 17.7529L722.883 186H739.939L908.186 17.7529H891.128Z" fill="white"/>
<path d="M1121.98 -21.7402L972.828 127.406H988.815L1137.97 -21.7402H1121.98Z" fill="white"/>
<path d="M1142.79 -117.76H1118.79L837.91 163.128H861.907L1142.79 -117.76Z" fill="white"/>
<path d="M670.068 73.4507H682.068L791.886 -36.3682H779.887L670.066 73.4507H654.085L598 129.538V145.521L670.068 73.4507Z" fill="white"/>
<path d="M1185.27 42.7588H1173.28L1030.04 186H1042.03L1185.27 42.7588Z" fill="white"/>
<path d="M1198 42.7588H1186.76L1043.51 186H1054.76L1198 42.7588Z" fill="white"/>
<path d="M717.122 1.48434L793.61 -75.0098H777.629L701.135 1.48434H712.505H717.122Z" fill="white"/>
<path d="M799.224 36.9453H782.168L708.373 110.747H725.429L799.224 36.9453Z" fill="white"/>
<path d="M775.527 -75.0098H758.471L681.994 1.46739L699.033 1.48434L775.527 -75.0098Z" fill="white"/>
</g>
</g>
<defs>
<linearGradient id="paint0_linear_2974_19508" x1="556.5" y1="0" x2="556.5" y2="64" gradientUnits="userSpaceOnUse">
<stop stop-color="#15151E" stop-opacity="0"/>
<stop offset="1" stop-color="#15151E"/>
</linearGradient>
<clipPath id="clip0_2974_19508">
<rect width="1113" height="64" fill="white"/>
</clipPath>
<clipPath id="clip1_2974_19508">
<rect width="600" height="600" fill="white" transform="translate(132 -171)"/>
</clipPath>
<clipPath id="clip2_2974_19508">
<rect width="600" height="600" fill="white" transform="translate(598 -414)"/>
</clipPath>
</defs>
</svg>
